<?xml version="1.0" ?><svg viewBox="0 0 64 64" xmlns="http://www.w3.org/2000/svg"><title/><g id="Moon"><path d="M30,4A28,28,0,1,0,43.4746,56.5449,1,1,0,0,0,42.99,54.67H32.0771a6.4682,6.4682,0,0,1,4.8174-5.27,1.0006,1.0006,0,0,0,.7559-.97.8945.8945,0,0,0-.03-.26,9.1678,9.1678,0,0,1,.1074-1.3237,8.367,8.367,0,0,1,15.6758-2.584,1.0415,1.0415,0,0,0,.8994.5376,1,1,0,0,0,.8858-.561A27.6332,27.6332,0,0,0,58,32,28.0314,28.0314,0,0,0,30,4Z" style="fill:#c3aed6"/><path d="M56.3672,47.6948c-.0186-.3574-.0576-.7363-.1211-1.1675a10.0851,10.0851,0,0,0-1.0693-3.19A10.3666,10.3666,0,0,0,35.751,46.5449c-.0615.419-.1006.794-.1182,1.15A8.46,8.46,0,0,0,30,55.67a1,1,0,0,0,1,1H61a1,1,0,0,0,1-1A8.46,8.46,0,0,0,56.3672,47.6948Z" style="fill:#9883ba"/><circle cx="20" cy="22" r="7" style="fill:#9883ba"/><circle cx="14" cy="37" r="5" style="fill:#9883ba"/></g></svg>