<?xml version="1.0" ?><svg viewBox="0 0 64 64" xmlns="http://www.w3.org/2000/svg"><title/><g data-name="Night Rainy" id="Night_Rainy"><path d="M61.4482,20.666a1.0034,1.0034,0,0,0-1.1616.1924A11.0932,11.0932,0,0,1,52.31,24.2,11.208,11.208,0,0,1,45.8554,3.8281a1,1,0,0,0-.416-1.8056A2.1852,2.1852,0,0,0,45.09,2,17.1089,17.1089,0,0,0,28,19.09c0,.4356.021.87.0527,1.294a1,1,0,0,0,.8555.916A12.01,12.01,0,0,1,38.17,28.2637a.9973.9973,0,0,0,1.1142.5644A9.2619,9.2619,0,0,1,49.7871,34.53a.9992.9992,0,0,0,.9326.64.9861.9861,0,0,0,.3476-.0625A17.0683,17.0683,0,0,0,61.9882,21.7119.9989.9989,0,0,0,61.4482,20.666Z" style="fill:#9883ba"/><path d="M52.3862,37.126a11.0281,11.0281,0,0,0-.7339-3.3164,11.28,11.28,0,0,0-12.0029-7.0733A13.99,13.99,0,0,0,29.1977,19.32,13.3055,13.3055,0,0,0,27.21,19.18a14.1137,14.1137,0,0,0-13.2168,9.3125A7.5243,7.5243,0,0,0,6.66,36.01a7.84,7.84,0,0,0,.0415.8154A8.504,8.504,0,0,0,2,44.39,8.2089,8.2089,0,0,0,3.1528,48.626,1,1,0,0,0,4.01,49.11H55.83a.999.999,0,0,0,.8213-.43A7.5045,7.5045,0,0,0,52.3862,37.126Z" style="fill:#c3aed6"/><path d="M10.958,52.1719c-.3228.3457-3.1548,3.4551-3.1548,5.9424a3.8862,3.8862,0,0,0,7.7724,0c0-2.4873-2.832-5.5967-3.1547-5.9424A1.03,1.03,0,0,0,10.958,52.1719Z" style="fill:#b2ebf2"/><path d="M29.2685,52.1719c-.3227.3457-3.1548,3.4551-3.1548,5.9424a3.8863,3.8863,0,0,0,7.7725,0c0-2.4873-2.832-5.5967-3.1548-5.9424A1.03,1.03,0,0,0,29.2685,52.1719Z" style="fill:#b2ebf2"/><path d="M49.0419,52.1719a1.03,1.03,0,0,0-1.4628,0c-.3228.3457-3.1548,3.4551-3.1548,5.9424a3.8862,3.8862,0,0,0,7.7724,0C52.1967,55.627,49.3647,52.5176,49.0419,52.1719Z" style="fill:#b2ebf2"/></g></svg>