<?xml version="1.0" encoding="UTF-8" standalone="no"?>
<!-- Created with Inkscape (http://www.inkscape.org/) -->

<svg
   width="48pt"
   height="48pt"
   viewBox="0 0 16.933334 16.933333"
   version="1.1"
   id="svg979"
   inkscape:version="1.1 (c68e22c387, 2021-05-23)"
   sodipodi:docname="29 - Fresh Air.svg"
   inkscape:export-filename="E:\TR Design Studio Creative\Project Design\TR Creative Design\Icon Design\Project Hiring\Icon Icons\006 - Ecology\Send\1 - Line\29 - Fresh Air.png"
   inkscape:export-xdpi="768"
   inkscape:export-ydpi="768"
   xmlns:inkscape="http://www.inkscape.org/namespaces/inkscape"
   xmlns:sodipodi="http://sodipodi.sourceforge.net/DTD/sodipodi-0.dtd"
   xmlns="http://www.w3.org/2000/svg"
   xmlns:svg="http://www.w3.org/2000/svg"
   xmlns:rdf="http://www.w3.org/1999/02/22-rdf-syntax-ns#"
   xmlns:cc="http://creativecommons.org/ns#"
   xmlns:dc="http://purl.org/dc/elements/1.1/">
  <defs
     id="defs973" />
  <sodipodi:namedview
     id="base"
     pagecolor="#ffffff"
     bordercolor="#666666"
     borderopacity="1.0"
     inkscape:pageopacity="0.0"
     inkscape:pageshadow="2"
     inkscape:zoom="6.0435533"
     inkscape:cx="22.503318"
     inkscape:cy="31.934855"
     inkscape:document-units="pt"
     inkscape:current-layer="layer1"
     showgrid="false"
     units="pt"
     inkscape:window-width="1366"
     inkscape:window-height="716"
     inkscape:window-x="-8"
     inkscape:window-y="-8"
     inkscape:window-maximized="1"
     inkscape:pagecheckerboard="0"
     inkscape:snap-bbox="true"
     inkscape:snap-nodes="false"
     inkscape:bbox-nodes="true"
     showguides="false">
    <inkscape:grid
       type="xygrid"
       id="grid1526" />
    <sodipodi:guide
       position="0.97013909,15.963209"
       orientation="56.666615,0"
       id="guide1528"
       inkscape:locked="false" />
    <sodipodi:guide
       position="0.97013909,0.97016731"
       orientation="0,56.666667"
       id="guide1530"
       inkscape:locked="false" />
    <sodipodi:guide
       position="15.963195,0.97016731"
       orientation="-56.666615,0"
       id="guide1532"
       inkscape:locked="false" />
    <sodipodi:guide
       position="15.963195,15.963209"
       orientation="0,-56.666667"
       id="guide1534"
       inkscape:locked="false" />
  </sodipodi:namedview>
  <metadata
     id="metadata976">
    <rdf:RDF>
      <cc:Work
         rdf:about="">
        <dc:format>image/svg+xml</dc:format>
        <dc:type
           rdf:resource="http://purl.org/dc/dcmitype/StillImage" />
      </cc:Work>
    </rdf:RDF>
  </metadata>
  <g
     inkscape:label="Layer 1"
     inkscape:groupmode="layer"
     id="layer1"
     transform="translate(0,-280.06668)">
    <path
       id="path26768"
       style="color:#000000;display:inline;fill:#000000;stroke-width:1;stroke-linecap:round;stroke-linejoin:round;-inkscape-stroke:none;paint-order:markers fill stroke"
       d="m 6.4556552,282.74999 c -1.1038986,0 -2.0069783,0.90246 -2.0069783,2.00635 1.306e-4,0.1066 3.83e-5,0.36468 0,0.5086 -0.4577218,0.35964 -0.673964,0.90407 -0.673964,1.51517 0,1.1056 0.9007526,2.00636 2.0063544,2.00636 h 0.3195756 c 0.1767819,6.4e-4 0.3202664,-0.1428 0.3195725,-0.31958 -6.366e-4,-0.1758 -0.1437646,-0.31777 -0.3195725,-0.31709 H 5.7810673 c -0.7639021,0 -1.3696924,-0.60579 -1.3696924,-1.36969 0,-0.5307 0.1416286,-0.83782 0.5266118,-1.0812 0.09776,-0.0626 0.1537476,-0.17331 0.1461107,-0.28912 h 0.00191 c 0,0 1.687e-4,-0.51405 0,-0.65345 0,-0.75982 0.6098745,-1.36969 1.3696923,-1.36969 0.4088517,-8e-5 0.7938507,0.18216 1.0532268,0.49491 -0.1082201,0.2051 -0.169734,0.4378 -0.169734,0.68453 3.182e-4,0.17606 0.1435227,0.3184 0.3195756,0.31772 0.175082,-6.4e-4 0.3167457,-0.14264 0.3170863,-0.31772 0,-0.46845 0.3733863,-0.84121 0.841836,-0.84121 0.5422736,0 0.9445708,0.33319 1.1794418,0.76164 0.1906518,0.34779 0.2232108,0.73377 0.1616518,0.96306 H 8.4788428 c -0.175811,6.4e-4 -0.3177739,0.14378 -0.3170863,0.31958 3.184e-4,0.17508 0.1420076,0.31703 0.3170863,0.31771 0.9000715,0 1.8001462,0 2.7002172,0 0.269117,0 0.547937,0.0722 0.726193,0.22072 0.178259,0.14855 0.305275,0.37531 0.305275,0.81075 0,0.43863 -0.122827,0.66429 -0.295948,0.81075 -0.173121,0.14646 -0.433682,0.22071 -0.73552,0.22071 h -0.336361 c -0.175875,-6.3e-4 -0.318974,0.14122 -0.319573,0.31709 -6.36e-4,0.17679 0.142788,0.32028 0.319573,0.31958 h 0.336361 c 0.403386,0 0.821004,-0.0958 1.146489,-0.37118 0.325487,-0.27536 0.521642,-0.7232 0.521642,-1.29695 0,-0.57692 -0.207393,-1.02617 -0.535318,-1.29944 -0.327928,-0.27327 -0.742301,-0.36932 -1.132813,-0.36932 h -0.357499 c 0.06809,-0.40777 -0.04334,-0.86372 -0.265484,-1.26896 -0.320085,-0.58392 -0.9308351,-1.09241 -1.7383867,-1.09241 -0.33448,0 -0.6443242,0.11274 -0.8928166,0.30217 -0.4683127,-0.38109 -0.9240512,-0.64039 -1.4692185,-0.64039 z m -4.9098832,2.22956 c -0.1174518,0.006 -0.2221568,0.0758 -0.2723226,0.18217 0,0 -0.1134021,0.24246 -0.198333,0.5434 -0.0849177,0.30095 -0.19298813,0.67264 0.01493,1.03271 0.2078893,0.36008 0.5835135,0.45218 0.8866029,0.52911 0.1538747,0.039 0.2979609,0.0644 0.402886,0.0795 l 0.08891,0.15419 c 0.087372,0.15191 0.2810418,0.20487 0.4333536,0.11815 0.1527575,-0.0878 0.2052566,-0.28336 0.1168876,-0.43584 l -0.089531,-0.15543 c 0.039652,-0.0987 0.090301,-0.23522 0.1330529,-0.38672 0.084921,-0.30095 0.1904893,-0.6714 -0.017413,-1.03147 -0.2078893,-0.36008 -0.5816416,-0.45403 -0.8847373,-0.53096 -0.3030893,-0.0769 -0.5713787,-0.0982 -0.5713787,-0.0982 -0.014261,-0.001 -0.028618,-0.001 -0.042901,-6.3e-4 z m 13.842426,0 c -0.01429,-6.4e-4 -0.02862,-6.4e-4 -0.0429,6.4e-4 0,0 -0.268913,0.0213 -0.571999,0.0983 -0.303096,0.0769 -0.676227,0.17089 -0.884117,0.53097 -0.207889,0.36007 -0.102327,0.73051 -0.01741,1.03146 0.04275,0.1515 0.09277,0.28809 0.132429,0.38673 l -0.08953,0.15543 c -0.08837,0.15246 -0.03587,0.34801 0.116885,0.43584 0.152308,0.0867 0.345981,0.0338 0.433353,-0.11815 l 0.08891,-0.1542 c 0.104926,-0.0153 0.249014,-0.0405 0.402889,-0.0795 0.303089,-0.0769 0.678713,-0.16903 0.886603,-0.52911 0.207889,-0.36007 0.09981,-0.73175 0.01493,-1.0327 -0.08493,-0.30094 -0.198337,-0.5434 -0.198337,-0.5434 -0.05006,-0.10612 -0.154476,-0.17618 -0.271698,-0.18218 z m -13.6198427,0.67646 c 0.086688,0.0126 0.1127656,0.008 0.2356414,0.0392 0.2447838,0.0621 0.4747939,0.20462 0.4905513,0.2319 0.015758,0.0273 0.024448,0.29725 -0.044143,0.5403 -0.034529,0.12243 -0.050329,0.14475 -0.082693,0.22631 -0.086672,-0.0126 -0.1122278,-0.0121 -0.2350174,-0.0429 -0.2447838,-0.0621 -0.4741731,-0.20461 -0.4899305,-0.23191 -0.015758,-0.0273 -0.024448,-0.29786 0.044143,-0.54092 0.034277,-0.12154 0.049192,-0.14054 0.081448,-0.22195 z m 13.3966377,0 c 0.03224,0.0815 0.04718,0.10046 0.08145,0.22195 0.06859,0.24306 0.06051,0.51361 0.04477,0.54092 -0.01576,0.0273 -0.245773,0.16982 -0.490551,0.23191 -0.12279,0.0308 -0.147725,0.0303 -0.234397,0.0429 -0.03235,-0.0816 -0.04816,-0.10395 -0.08269,-0.22631 -0.06859,-0.24306 -0.06052,-0.51299 -0.04477,-0.5403 0.01576,-0.0273 0.245764,-0.16982 0.49055,-0.2319 0.122873,-0.031 0.148954,-0.0266 0.235641,-0.0392 z m -6.6861947,1.14524 c -0.9175286,0 -1.6656478,0.76578 -1.6656415,1.7502 -6.367e-4,0.17581 0.1412753,0.31889 0.3170863,0.31958 0.176782,6.3e-4 0.3202697,-0.14279 0.3195758,-0.31958 -3.3e-6,-0.67533 0.4555252,-1.11602 1.0289794,-1.11602 0.5734542,0 1.0314657,0.458 1.0314657,1.03146 6.3e-6,0.57344 -0.4580084,1.03209 -1.0314657,1.03209 H 4.0942854 c -0.1767819,-6.4e-4 -0.3202664,0.14279 -0.3195725,0.31958 6.366e-4,0.1758 0.1437646,0.31777 0.3195725,0.31709 h 4.3845129 c 0.9175382,0 1.6687577,-0.75123 1.6687517,-1.66876 -3e-6,-0.91754 -0.751223,-1.66564 -1.6687517,-1.66564 z m -6.4101422,1.68678 c -0.1753239,3.2e-4 -0.3173696,0.14239 -0.3177102,0.31771 6.366e-4,0.17508 0.1426281,0.31674 0.3177102,0.31709 H 3.755438 c 0.175082,-3.2e-4 0.3170258,-0.14201 0.3177103,-0.31709 -3.184e-4,-0.17532 -0.1423863,-0.31737 -0.3177103,-0.31771 z m 11.8105769,0.33636 c -0.176053,3.3e-4 -0.318394,0.14352 -0.317707,0.31958 0,0.2007 -0.156174,0.35501 -0.356881,0.35501 h -2.36199 c -0.176783,-6.4e-4 -0.320267,0.14279 -0.319573,0.31958 6.36e-4,0.1758 0.143764,0.31777 0.319573,0.31709 h 2.36199 c 0.544785,0 0.994166,-0.4469 0.994164,-0.99168 6.36e-4,-0.17678 -0.142795,-0.32028 -0.319576,-0.31958 z m -10.4875137,2.02563 c -0.533179,0.0136 -0.9661886,0.4554 -0.9661824,0.99168 -6.365e-4,0.1758 0.1412786,0.31888 0.3170865,0.31957 0.1767819,6.3e-4 0.3202664,-0.14279 0.3195756,-0.31957 -3.1e-6,-0.20071 0.1543141,-0.35501 0.3550123,-0.35501 h 2.363856 c 0.1760529,-3.2e-4 0.3183978,-0.14352 0.3177102,-0.31958 -6.367e-4,-0.17508 -0.1426282,-0.31675 -0.3177102,-0.31709 h -2.363856 c -0.00849,0 -0.01703,-2.1e-4 -0.025498,0 z m 3.7385238,0 c -0.17484,6.4e-4 -0.3164051,0.14225 -0.3170863,0.31709 -6.367e-4,0.1758 0.1412785,0.31888 0.3170863,0.31958 h 4.3869999 c 0.573456,0 1.031471,0.45801 1.031468,1.03146 -4e-6,0.57347 -0.458012,1.03148 -1.031468,1.03147 -0.573455,0 -1.03147,-0.4407 -1.031466,-1.11602 6.36e-4,-0.17582 -0.141279,-0.31889 -0.31709,-0.31958 -0.1767786,-6.4e-4 -0.3202632,0.1428 -0.3195724,0.31958 -6.4e-6,0.98441 0.7506024,1.7533 1.6681284,1.7533 0.917524,0 1.668751,-0.75121 1.668751,-1.66875 6e-6,-0.91753 -0.751213,-1.66813 -1.668751,-1.66813 z m 0.564541,1.27146 c -0.1990046,10e-4 -0.3896563,0.0561 -0.5589447,0.10383 -0.3009437,0.0849 -0.5446452,0.2002 -0.5446452,0.2002 -0.1207398,0.0566 -0.1934466,0.18237 -0.1821682,0.31523 0,0 0.023175,0.26642 0.100099,0.56951 0.076928,0.3031 0.1690273,0.67872 0.5291011,0.8866 0.3600737,0.20789 0.7317665,0.0997 1.0327102,0.0149 0.1525316,-0.0431 0.289503,-0.0933 0.3879659,-0.13243 l 0.154814,0.0889 c 0.1516179,0.0878 0.3460354,0.0368 0.4345951,-0.11442 0.088359,-0.15246 0.035857,-0.34736 -0.1168852,-0.43521 l -0.1554378,-0.0901 c -0.014962,-0.10527 -0.039534,-0.24876 -0.078338,-0.40164 -0.076928,-0.30308 -0.1708928,-0.67685 -0.5309665,-0.88474 -0.1575325,-0.091 -0.3171213,-0.12172 -0.4719002,-0.12062 z m 0.1542345,0.67086 c 0.093195,0.0538 0.1697787,0.24578 0.2319106,0.49056 0.031324,0.1233 0.028904,0.15005 0.041656,0.23687 -0.081403,0.0324 -0.1025341,0.0458 -0.2244489,0.0803 -0.2430553,0.0686 -0.5136207,0.0605 -0.5409143,0.0448 -0.027281,-0.0158 -0.1697787,-0.24576 -0.2319073,-0.49056 -0.031101,-0.1224 -0.027631,-0.14714 -0.040415,-0.23377 0.081417,-0.0324 0.1018242,-0.0489 0.2238279,-0.0833 0.1871883,-0.0629 0.4294923,-0.0811 0.5402905,-0.0448 z"
       sodipodi:nodetypes="cccsscscsscccccccscsscccccsssscccssssscssccscscccccccssccsssccssccccccsccssccscccsccccscccsccscscssscscssscccccccccscscsccscscscscssscscssscscssscssccssccccccsssscccsscccc" />
  </g>
</svg>
